<svg xmlns="http://www.w3.org/2000/svg" aria-hidden="true" focusable="false" role="presentation" width="28" height="31" version="1.1" style=""><rect id="backgroundrect" width="100%" height="100%" x="0" y="0" fill="none" stroke="none" class="" style=""/><g class="currentLayer" style=""><title>Layer 1</title><path d="M25.10000011920929,23.600000447034837 c-0.30000000000000016,0.1 -0.6000000000000003,0.2 -1,0.2 c-0.6000000000000003,0.1 -1.3,0 -2.1,0.1 s-1.7000000000000002,0.30000000000000016 -2.6,0.8 c-0.8,0.5 -1.4,1.1 -1.9,1.6 c-0.7000000000000003,0.9 -1.1,1.7000000000000002 -1.5,2.2 c-0.2,0.30000000000000016 -0.4,0.4 -0.7000000000000003,0.6000000000000003 c-0.2,0.1 -0.4,0.2 -0.8,0.2 v-13 L26.00000011920929,22.900000447034834 c-0.30000000000000016,0.30000000000000016 -0.6000000000000003,0.5 -0.9,0.7000000000000003 m-11.3,5.9 c-0.5,-0.1 -0.8,-0.2 -1,-0.4 c-0.2,-0.2 -0.5,-0.4 -0.7000000000000003,-0.7000000000000003 c-0.30000000000000016,-0.5 -0.7000000000000003,-1.1 -1.2,-1.7000000000000002 c-0.5,-0.7000000000000003 -1.1,-1.3 -2.1,-1.9 c-0.8,-0.5 -1.6,-0.7000000000000003 -2.3,-0.8 c-1.1,-0.2 -2,-0.1 -2.7,-0.2 l-0.9,-0.30000000000000016 c-0.2,-0.1 -0.4,-0.30000000000000016 -0.6000000000000003,-0.6000000000000003 l11.4,-6.6 v13.2 zM1.7000001192092897,21.300000447034837 c0,-0.30000000000000016 0.1,-0.6000000000000003 0.2,-1 c0.2,-0.5 0.6000000000000003,-1.1 0.9,-1.9 c0.30000000000000016,-0.8 0.6000000000000003,-1.7000000000000002 0.6000000000000003,-2.8 v-0.1 c0,-1.5 -0.6000000000000003,-2.6 -1,-3.5 l-0.6000000000000003,-1.2 c-0.1,-0.4 -0.2,-0.7000000000000003 -0.2,-1 c0,-0.30000000000000016 0.1,-0.6000000000000003 0.2,-1 l11.4,6.6 l-11.3,6.8 c-0.1,-0.4 -0.2,-0.7000000000000003 -0.2,-0.9 M3.2000001192092897,7.6000004470348355 c0.30000000000000016,-0.1 0.6000000000000003,-0.2 1,-0.2 c0.6000000000000003,-0.1 1.3,0 2.1,-0.1 c0.7000000000000003,-0.2 1.6,-0.4 2.5,-0.9 c0.8,-0.5 1.4,-1.1 1.9,-1.6 c0.7000000000000003,-0.9 1.1,-1.7000000000000002 1.5,-2.2 c0.2,-0.30000000000000016 0.4,-0.4 0.7000000000000003,-0.6000000000000003 c0.2,-0.1 0.5,-0.2 0.8,-0.2 V15.000000447034836 L2.3000001192092894,8.300000447034837 c0.30000000000000016,-0.4 0.6000000000000003,-0.6000000000000003 0.9,-0.7000000000000003 m11.3,-5.9 c0.5,0 0.8,0.2 1,0.4 c0.2,0.2 0.5,0.4 0.7000000000000003,0.7000000000000003 c0.30000000000000016,0.5 0.7000000000000003,1.1 1.2,1.7000000000000002 c0.5,0.7000000000000003 1.1,1.3 2.1,1.9 c0.8,0.5 1.6,0.7000000000000003 2.4,0.8 c1.1,0.1 2,0.1 2.7,0.2 l0.9,0.30000000000000016 c0.2,0.1 0.4,0.30000000000000016 0.6000000000000003,0.6000000000000003 l-11.4,6.6 V1.700000447034836 zm12.1,8.2 c0,0.30000000000000016 -0.1,0.6000000000000003 -0.2,1 c-0.2,0.5 -0.6000000000000003,1.1 -0.9,1.9 c-0.30000000000000016,0.8 -0.6000000000000003,1.7000000000000002 -0.6000000000000003,2.8 v0.2 c0,1.5 0.5,2.6 1,3.5 l0.6000000000000003,1.2 c0.1,0.4 0.2,0.7000000000000003 0.2,1 c0,0.30000000000000016 -0.1,0.6000000000000003 -0.2,0.9 l-11.4,-6.6 L26.30000011920929,9.000000447034836 c0.2,0.4 0.30000000000000016,0.7000000000000003 0.30000000000000016,0.9 m0.4,7.8 c-0.30000000000000016,-0.6000000000000003 -0.5,-1.3 -0.5,-2 v-0.1 c0,-1 0.4,-1.8 0.8,-2.7 c0.2,-0.4 0.5,-0.8 0.6000000000000003,-1.3 c0.2,-0.5 0.30000000000000016,-1 0.30000000000000016,-1.6 c0,-0.7000000000000003 -0.2,-1.4 -0.6000000000000003,-2.1 c-0.5,-0.8 -1.1,-1.4 -1.8,-1.7000000000000002 c-0.5,-0.2 -1,-0.30000000000000016 -1.5,-0.4 c-0.7000000000000003,-0.1 -1.4,-0.1 -2.1,-0.1 c-0.7000000000000003,-0.1 -1.3,-0.2 -1.9,-0.6000000000000003 c-0.6000000000000003,-0.30000000000000016 -1,-0.7000000000000003 -1.4,-1.2 c-0.5,-0.9 -0.9,-1.7000000000000002 -1.6,-2.5 c-0.30000000000000016,-0.4 -0.7000000000000003,-0.8 -1.3,-1 c-0.5,-0.30000000000000016 -1.1,-0.4 -1.9,-0.4 c-1,0 -1.8,0.2 -2.4,0.7000000000000003 c-0.5,0.30000000000000016 -0.8,0.7000000000000003 -1.1,1.1 c-0.4,0.6000000000000003 -0.7000000000000003,1.2 -1.1,1.7000000000000002 c-0.4,0.5 -0.8,1 -1.5,1.4 c-0.6000000000000003,0.4 -1.2,0.5 -1.8,0.6000000000000003 c-0.9,0.1 -1.8,0 -2.8,0.2 c-0.5,0.1 -1,0.30000000000000016 -1.5,0.7000000000000003 c-0.5,0.30000000000000016 -0.9,0.8 -1.3,1.4 C0.2000001192092896,8.500000447034836 1.1920928955078125e-7,9.300000447034837 1.1920928955078125e-7,10.000000447034836 c0,0.6000000000000003 0.1,1.1 0.30000000000000016,1.6 c0.30000000000000016,0.7000000000000003 0.7000000000000003,1.3 1,2 c0.30000000000000016,0.6000000000000003 0.5,1.3 0.5,2.1 v0.1 c0,1.1 -0.4,1.8 -0.8,2.7 c-0.2,0.4 -0.5,0.8 -0.6000000000000003,1.3 c-0.2,0.5 -0.30000000000000016,1 -0.30000000000000016,1.6 c0,0.7000000000000003 0.2,1.4 0.6000000000000003,2.1 c0.5,0.8 1.1,1.4 1.8,1.7000000000000002 c0.5,0.2 1,0.30000000000000016 1.5,0.4 c0.7000000000000003,0.1 1.4,0.1 2.1,0.1 c0.7000000000000003,0.1 1.3,0.2 2,0.6000000000000003 c0.6000000000000003,0.30000000000000016 1,0.7000000000000003 1.4,1.2 c0.5,0.7000000000000003 0.9,1.5 1.6,2.3 c0.30000000000000016,0.4 0.7000000000000003,0.7000000000000003 1.3,1 c0.5,0.30000000000000016 1.2,0.4 1.9,0.4 c1,0 1.8,-0.30000000000000016 2.4,-0.7000000000000003 c0.5,-0.30000000000000016 0.8,-0.7000000000000003 1.1,-1.1 c0.4,-0.6000000000000003 0.8,-1.2 1.2,-1.7000000000000002 c0.4,-0.5 0.8,-1 1.5,-1.4 c0.6000000000000003,-0.30000000000000016 1.1,-0.5 1.7000000000000002,-0.6000000000000003 c0.9,-0.1 1.8,0 2.8,-0.2 c0.5,-0.1 1,-0.30000000000000016 1.5,-0.6000000000000003 s0.9,-0.8 1.3,-1.4 c0.4,-0.7000000000000003 0.6000000000000003,-1.5 0.6000000000000003,-2.1 c0,-0.6000000000000003 -0.1,-1.1 -0.30000000000000016,-1.6 c-0.5,-0.9 -0.8,-1.5 -1.1,-2.1 " id="svg_1" class="selected" fill="#0000ff" fill-opacity="1"/></g></svg>